<?xml version="1.0" encoding="utf-8"?>
<!-- Generator: Adobe Illustrator 25.2.0, SVG Export Plug-In . SVG Version: 6.00 Build 0)  -->
<svg version="1.1" id="Layer_1" xmlns="http://www.w3.org/2000/svg" xmlns:xlink="http://www.w3.org/1999/xlink" x="0px" y="0px"
	 viewBox="0 0 24 24" style="enable-background:new 0 0 24 24;" xml:space="preserve">
<style type="text/css">
	.st0{fill:#8696ab;}
	.st1{fill:none;stroke:#8696ab;stroke-width:1.5;stroke-linecap:round;stroke-miterlimit:10;}
	.st2{clip-path:url(#SVGID_2_);}
	.st3{clip-path:url(#SVGID_4_);fill:#8696ab;}
	.st4{fill:none;stroke:#8696ab;stroke-width:1.5;stroke-miterlimit:10;}
	.st5{clip-path:url(#SVGID_6_);}
	.st6{clip-path:url(#SVGID_8_);fill:#8696ab;}
	.st7{clip-path:url(#SVGID_10_);}
	.st8{clip-path:url(#SVGID_12_);fill:#8696ab;}
	.st9{clip-path:url(#SVGID_14_);}
	.st10{clip-path:url(#SVGID_16_);fill:#8696ab;}
	.st11{opacity:0;fill:#FFFFFF;}
	.st12{fill:#8696ab;}
</style>
<rect x="-926.7" y="118.2" class="st0" width="24" height="24"/>
<path class="st1" d="M-917.2,138.2c-3.9-0.4-6.7-1.7-6.7-3.2c0-1.8,4.2-3.3,9.3-3.3c5.1,0,9.3,1.5,9.3,3.3c0,1.7-3.4,3-7.9,3.3"/>
<g>
	<defs>
		<path id="SVGID_1_" d="M-919.8,129.8c-0.6-0.9-0.8-2-0.8-3.1c0-3.4,2.8-6.2,6.2-6.2c3.4,0,6.2,2.8,6.2,6.2c0,1.1-0.2,2.2-0.8,3.1
			c-1.2,1.7-5.3,6.2-5.3,6.2S-918.7,131.5-919.8,129.8z"/>
	</defs>
	<clipPath id="SVGID_2_">
		<use xlink:href="#SVGID_1_"  style="overflow:visible;"/>
	</clipPath>
	<g class="st2">
		<defs>
			<rect id="SVGID_3_" x="-952.7" y="-510.4" width="1920" height="1073"/>
		</defs>
		<clipPath id="SVGID_4_">
			<use xlink:href="#SVGID_3_"  style="overflow:visible;"/>
		</clipPath>
		<rect x="-925.7" y="115.6" class="st3" width="22.3" height="25.4"/>
	</g>
</g>
<g>
	<path class="st4" d="M-919,129.6c-0.5-0.7-0.7-1.7-0.7-2.6c0-2.9,2.3-5.2,5.2-5.2c2.9,0,5.2,2.3,5.2,5.2c0,0.9-0.2,1.9-0.7,2.6
		c-1,1.4-4.5,5.2-4.5,5.2S-918,131-919,129.6z"/>
	<circle class="st4" cx="-914.5" cy="126.5" r="1.7"/>
</g>
<polyline class="st1" points="-917.6,139.5 -916.2,138 -917.7,136.5 "/>
<rect x="-926.7" y="118.2" class="st0" width="24" height="24"/>
<path class="st1" d="M-917.2,138.2c-3.9-0.4-6.7-1.7-6.7-3.2c0-1.8,4.2-3.3,9.3-3.3c5.1,0,9.3,1.5,9.3,3.3c0,1.7-3.4,3-7.9,3.3"/>
<g>
	<defs>
		<path id="SVGID_5_" d="M-919.8,129.8c-0.6-0.9-0.8-2-0.8-3.1c0-3.4,2.8-6.2,6.2-6.2c3.4,0,6.2,2.8,6.2,6.2c0,1.1-0.2,2.2-0.8,3.1
			c-1.2,1.7-5.3,6.2-5.3,6.2S-918.7,131.5-919.8,129.8z"/>
	</defs>
	<clipPath id="SVGID_6_">
		<use xlink:href="#SVGID_5_"  style="overflow:visible;"/>
	</clipPath>
	<g class="st5">
		<defs>
			<rect id="SVGID_7_" x="-952.7" y="-510.4" width="1920" height="1073"/>
		</defs>
		<clipPath id="SVGID_8_">
			<use xlink:href="#SVGID_7_"  style="overflow:visible;"/>
		</clipPath>
		<rect x="-925.7" y="115.6" class="st6" width="22.3" height="25.4"/>
	</g>
</g>
<g>
	<path class="st4" d="M-919,129.6c-0.5-0.7-0.7-1.7-0.7-2.6c0-2.9,2.3-5.2,5.2-5.2c2.9,0,5.2,2.3,5.2,5.2c0,0.9-0.2,1.9-0.7,2.6
		c-1,1.4-4.5,5.2-4.5,5.2S-918,131-919,129.6z"/>
	<circle class="st4" cx="-914.5" cy="126.5" r="1.7"/>
</g>
<polyline class="st1" points="-917.6,139.5 -916.2,138 -917.7,136.5 "/>
<rect x="-799.6" y="223.8" class="st0" width="24" height="24"/>
<path class="st1" d="M-790.2,243.8c-3.9-0.4-6.7-1.7-6.7-3.2c0-1.8,4.2-3.3,9.3-3.3c5.1,0,9.3,1.5,9.3,3.3c0,1.7-3.4,3-7.9,3.3"/>
<g>
	<defs>
		<path id="SVGID_9_" d="M-792.8,235.4c-0.6-0.9-0.8-2-0.8-3.1c0-3.4,2.8-6.2,6.2-6.2c3.4,0,6.2,2.8,6.2,6.2c0,1.1-0.2,2.2-0.8,3.1
			c-1.2,1.7-5.3,6.2-5.3,6.2S-791.6,237.1-792.8,235.4z"/>
	</defs>
	<clipPath id="SVGID_10_">
		<use xlink:href="#SVGID_9_"  style="overflow:visible;"/>
	</clipPath>
	<g class="st7">
		<defs>
			<rect id="SVGID_11_" x="-825.7" y="-404.8" width="1920" height="1073"/>
		</defs>
		<clipPath id="SVGID_12_">
			<use xlink:href="#SVGID_11_"  style="overflow:visible;"/>
		</clipPath>
		<rect x="-798.7" y="221.2" class="st8" width="22.3" height="25.4"/>
	</g>
</g>
<g>
	<path class="st4" d="M-792,235.2c-0.5-0.7-0.7-1.7-0.7-2.6c0-2.9,2.3-5.2,5.2-5.2c2.9,0,5.2,2.3,5.2,5.2c0,0.9-0.2,1.9-0.7,2.6
		c-1,1.4-4.5,5.2-4.5,5.2S-791,236.6-792,235.2z"/>
	<circle class="st4" cx="-787.5" cy="232.1" r="1.7"/>
</g>
<polyline class="st1" points="-790.6,245.1 -789.2,243.6 -790.7,242.1 "/>
<rect x="-927.1" y="104.5" class="st0" width="24" height="24"/>
<path class="st1" d="M-917.6,124.5c-3.9-0.4-6.7-1.7-6.7-3.2c0-1.8,4.2-3.3,9.3-3.3c5.1,0,9.3,1.5,9.3,3.3c0,1.7-3.4,3-7.9,3.3"/>
<g>
	<defs>
		<path id="SVGID_13_" d="M-920.3,116.1c-0.6-0.9-0.8-2-0.8-3.1c0-3.4,2.8-6.2,6.2-6.2c3.4,0,6.2,2.8,6.2,6.2c0,1.1-0.2,2.2-0.8,3.1
			c-1.2,1.7-5.3,6.2-5.3,6.2S-919.1,117.8-920.3,116.1z"/>
	</defs>
	<clipPath id="SVGID_14_">
		<use xlink:href="#SVGID_13_"  style="overflow:visible;"/>
	</clipPath>
	<g class="st9">
		<defs>
			<rect id="SVGID_15_" x="-953.1" y="-524.1" width="1920" height="1073"/>
		</defs>
		<clipPath id="SVGID_16_">
			<use xlink:href="#SVGID_15_"  style="overflow:visible;"/>
		</clipPath>
		<rect x="-926.1" y="101.9" class="st10" width="22.3" height="25.4"/>
	</g>
</g>
<g>
	<path class="st4" d="M-919.4,115.9c-0.5-0.7-0.7-1.7-0.7-2.6c0-2.9,2.3-5.2,5.2-5.2c2.9,0,5.2,2.3,5.2,5.2c0,0.9-0.2,1.9-0.7,2.6
		c-1,1.4-4.5,5.2-4.5,5.2S-918.4,117.3-919.4,115.9z"/>
	<circle class="st4" cx="-914.9" cy="112.8" r="1.7"/>
</g>
<polyline class="st1" points="-918.1,125.8 -916.6,124.3 -918.1,122.8 "/>
<g>
	<rect class="st11" width="24" height="24"/>
	<g>
		<g>
			<path class="st12" d="M12.7,3.5v0.3V5l1.1,0.3c0.6,0.2,1.1,0.4,1.7,0.7l1,0.6l0.8-0.8l0.2-0.2l1,1l-0.2,0.2l-0.8,0.8l0.6,1
				c0.3,0.5,0.5,1.1,0.7,1.7l0.3,1.1h1.1h0.3v1.4h-0.3H19l-0.3,1.1c-0.2,0.6-0.4,1.1-0.7,1.7l-0.6,1l0.8,0.8l0.2,0.2l-1,1l-0.2-0.2
				l-0.8-0.8l-1,0.6c-0.5,0.3-1.1,0.5-1.7,0.7L12.7,19v1.1v0.3h-1.4v-0.3V19l-1.1-0.3c-0.6-0.2-1.1-0.4-1.7-0.7l-1-0.6l-0.8,0.8
				l-0.2,0.2l-1-1l0.2-0.2l0.8-0.8l-0.6-1c-0.3-0.5-0.5-1.1-0.7-1.7L5,12.7H3.8H3.5v-1.4h0.3H5l0.3-1.1C5.4,9.6,5.6,9,5.9,8.5l0.6-1
				L5.7,6.7L5.5,6.5l1-1l0.2,0.2l0.8,0.8l1-0.6C9,5.6,9.6,5.4,10.2,5.3L11.3,5V3.8V3.5H12.7 M17.8,5.2L17.8,5.2L17.8,5.2 M6.9,5.2
				L6.9,5.2L6.9,5.2 M13.2,2h-2.4c-0.6,0-1,0.5-1,1v0.7C9.1,4,8.4,4.3,7.8,4.6L7.2,4.1C7.1,3.9,6.8,3.8,6.5,3.8S6,3.9,5.8,4.1
				L4.1,5.8C3.9,6,3.8,6.2,3.8,6.5c0,0.3,0.1,0.5,0.3,0.7l0.5,0.5C4.3,8.4,4,9.1,3.8,9.8H3.1c-0.6,0-1,0.5-1,1v2.4c0,0.6,0.5,1,1,1
				h0.7c0.2,0.7,0.5,1.4,0.8,2l-0.5,0.5c-0.2,0.2-0.3,0.5-0.3,0.7c0,0.3,0.1,0.5,0.3,0.7l1.7,1.7c0.2,0.2,0.5,0.3,0.7,0.3
				s0.5-0.1,0.7-0.3l0.5-0.5c0.6,0.4,1.3,0.6,2,0.8v0.7c0,0.6,0.5,1,1,1h2.4c0.6,0,1-0.5,1-1v-0.7c0.7-0.2,1.4-0.5,2-0.8l0.5,0.5
				c0.2,0.2,0.5,0.3,0.7,0.3c0.3,0,0.5-0.1,0.7-0.3l1.7-1.7c0.2-0.2,0.3-0.5,0.3-0.7c0-0.3-0.1-0.5-0.3-0.7l-0.5-0.5
				c0.4-0.6,0.6-1.3,0.8-2h0.7c0.6,0,1-0.5,1-1v-2.4c0-0.6-0.5-1-1-1h-0.7c-0.2-0.7-0.5-1.4-0.8-2l0.5-0.5c0.2-0.2,0.3-0.5,0.3-0.7
				c0-0.3-0.1-0.5-0.3-0.7l-1.7-1.7c-0.2-0.2-0.5-0.3-0.7-0.3s-0.5,0.1-0.7,0.3l-0.5,0.5c-0.6-0.4-1.3-0.6-2-0.8V3.1
				C14.2,2.5,13.8,2,13.2,2L13.2,2z"/>
		</g>
		<g>
			<path class="st12" d="M12,9.8c1.2,0,2.2,1,2.2,2.2s-1,2.2-2.2,2.2s-2.2-1-2.2-2.2S10.8,9.8,12,9.8 M12,8.3c-2,0-3.7,1.6-3.7,3.7
				s1.6,3.7,3.7,3.7s3.7-1.6,3.7-3.7S14,8.3,12,8.3L12,8.3z"/>
		</g>
	</g>
</g>
</svg>
