<svg xmlns="http://www.w3.org/2000/svg" width="24" height="24" viewBox="0 0 24 24">
    <g fill="none" fill-rule="evenodd">
        <g>
            <g>
                <path fill="#8696ab" d="M11.719 2L4.837 4.547C4.033 4.845 3.5 5.607 3.5 6.46v6.153c0 1.864.839 3.63 2.286 4.814l5.305 4.342c.189.154.419.231.649.231.219 0 .439-.07.623-.21l5.693-4.36c1.54-1.182 2.444-3.006 2.444-4.94V6.491c0-.868-.552-1.64-1.378-1.928L11.719 2zm.017 1.593l6.896 2.39c.22.076.368.281.368.51v5.996c0 1.457-.694 2.86-1.856 3.748l-5.395 4.132-5.013-4.103C5.633 15.363 5 14.032 5 12.613V6.46c0-.224.144-.427.358-.506l6.378-2.36z" transform="translate(-26 -351) translate(26 351)"/>
                <path stroke="#8696ab" stroke-linecap="round" stroke-linejoin="round" stroke-width="1.5" d="M9.209 11.709L11.264 13.764 14.791 10.236" transform="translate(-26 -351) translate(26 351)"/>
            </g>
        </g>
    </g>
</svg>
