<?xml version="1.0" encoding="UTF-8"?>
<svg width="24px" height="24px" viewBox="0 0 24 24" version="1.1" xmlns="http://www.w3.org/2000/svg" xmlns:xlink="http://www.w3.org/1999/xlink">
    <g id="Page-1" stroke="none" stroke-width="1" fill="none" fill-rule="evenodd">
        <g id="Empty_states_dashboard" transform="translate(-25.000000, -286.000000)">
            <g id="Group-23" transform="translate(25.000000, 286.000000)">
                <g id="Group-22" transform="translate(2.000000, 2.000000)">
                    <path d="M13.8584,19.6413 L0.5534,19.6413 C0.2664,19.6413 0.0334,19.4093 0.0334,19.1213 L0.0334,1.7623 C0.0334,1.4753 0.2664,1.2433 0.5534,1.2433 L13.8584,1.2433 C14.1454,1.2433 14.3784,1.4753 14.3784,1.7623 L14.3784,19.1213 C14.3784,19.4093 14.1454,19.6413 13.8584,19.6413" id="Fill-2"></path>
                    <path d="M14.5771,19.2468 L1.2721,19.2468 C0.9851,19.2468 0.7521,19.0118 0.7521,18.7218 L0.7521,1.1728 C0.7521,0.8828 0.9851,0.6468 1.2721,0.6468 L14.5771,0.6468 C14.8641,0.6468 15.0971,0.8828 15.0971,1.1728 L15.0971,18.7218 C15.0971,19.0118 14.8641,19.2468 14.5771,19.2468" id="Fill-4" ></path>
                    <path d="M14.5771,19.2468 L1.2721,19.2468 C0.9851,19.2468 0.7521,19.0118 0.7521,18.7218 L0.7521,1.1728 C0.7521,0.8828 0.9851,0.6468 1.2721,0.6468 L14.5771,0.6468 C14.8641,0.6468 15.0971,0.8828 15.0971,1.1728 L15.0971,18.7218 C15.0971,19.0118 14.8641,19.2468 14.5771,19.2468 Z" id="Stroke-6" stroke="#8696ab" stroke-width="1.5" stroke-linecap="round" stroke-linejoin="round"></path>
                    <path d="M4.2725,18.5007 L10.4055,18.5007" id="Fill-8" fill="#FEFEFE"></path>
                    <path d="M4.9917,16.0583 L11.1237,16.0583" id="Stroke-10" stroke="#8696ab" stroke-width="1.5" stroke-linecap="round" stroke-linejoin="round"></path>
                    <path d="M17.6738,19.6589 L11.9858,19.6589 C11.2538,19.6589 10.6618,19.0659 10.6618,18.3349 L10.6618,7.4769 C10.6618,6.7459 11.2538,6.1529 11.9858,6.1529 L17.6738,6.1529 C18.4038,6.1529 18.9978,6.7459 18.9978,7.4769 L18.9978,18.3349 C18.9978,19.0659 18.4038,19.6589 17.6738,19.6589" id="Fill-12" fill="#8696ab"></path>
                    <path d="M17.9404,19.2468 L12.2534,19.2468 C11.5214,19.2468 10.9284,18.6538 10.9284,17.9228 L10.9284,7.0648 C10.9284,6.3348 11.5214,5.7418 12.2534,5.7418 L17.9404,5.7418 C18.6714,5.7418 19.2644,6.3348 19.2644,7.0648 L19.2644,17.9228 C19.2644,18.6538 18.6714,19.2468 17.9404,19.2468" id="Fill-14" fill="#8696ab"></path>
                    <path d="M17.9404,19.2468 L12.2534,19.2468 C11.5214,19.2468 10.9284,18.6538 10.9284,17.9228 L10.9284,7.0648 C10.9284,6.3348 11.5214,5.7418 12.2534,5.7418 L17.9404,5.7418 C18.6714,5.7418 19.2644,6.3348 19.2644,7.0648 L19.2644,17.9228 C19.2644,18.6538 18.6714,19.2468 17.9404,19.2468 Z" id="Stroke-16" stroke="#8696ab" stroke-width="1.5" stroke-linecap="round" stroke-linejoin="round"></path>
                    <path d="M13.2578,6.8698 L16.5218,6.8698" id="Fill-18" fill="#FEFEFE"></path>
                    <path d="M13.5244,7.4587 L16.7894,7.4587" id="Stroke-20" stroke="#8696ab" stroke-linecap="round" stroke-linejoin="round"></path>
                </g>
            </g>
        </g>
    </g>
</svg>