<?xml version="1.0" encoding="utf-8"?>
<!-- Generator: Adobe Illustrator 25.2.0, SVG Export Plug-In . SVG Version: 6.00 Build 0)  -->
<svg version="1.1" id="Layer_1" xmlns="http://www.w3.org/2000/svg" xmlns:xlink="http://www.w3.org/1999/xlink" x="0px" y="0px"
	 viewBox="0 0 24 24" style="enable-background:new 0 0 24 24;" xml:space="preserve">
<style type="text/css">
	.st0{opacity:0;fill:#FFFFFF;}
	.st1{fill-rule:evenodd;clip-rule:evenodd;fill:none;stroke:#8696ab;stroke-width:1.5;stroke-miterlimit:10;}
	.st2{fill-rule:evenodd;clip-rule:evenodd;fill:#FFFFFF;}
	.st3{fill:none;stroke:#8696ab;stroke-width:1.5;stroke-linecap:round;stroke-miterlimit:10;}
	.st4{fill:none;stroke:#8696ab;stroke-width:1.5;stroke-miterlimit:10;}
</style>
<rect class="st0" width="24" height="24"/>
<g>
	<path id="Stroke-7_2_" class="st1" d="M15.8,21.3H4.1c-0.7,0-1.3-0.6-1.3-1.3V4c0-0.7,0.6-1.3,1.3-1.3h11.7c0.7,0,1.3,0.6,1.3,1.3
		v3.7"/>
	<path id="Fill-11_1_" class="st2" d="M6.3,20.6h6.1"/>
	<path id="Stroke-13_2_" class="st3" d="M7,18.1h5.7"/>
	<path id="Stroke-17_1_" class="st4" d="M19.9,21.3h-5.7c-0.7,0-1.3-0.6-1.3-1.3V9.1c0-0.7,0.6-1.3,1.3-1.3h5.7
		c0.7,0,1.3,0.6,1.3,1.3V20C21.3,20.7,20.7,21.3,19.9,21.3z"/>
	<path id="Fill-21_1_" class="st2" d="M15.2,8.9h3.3"/>
	<path id="Stroke-23_1_" class="st3" d="M15.5,9.5h3.3"/>
</g>
</svg>
