<?xml version="1.0" encoding="utf-8"?>
<!-- Generator: Adobe Illustrator 25.2.0, SVG Export Plug-In . SVG Version: 6.00 Build 0)  -->
<svg version="1.1" id="Layer_1" xmlns="http://www.w3.org/2000/svg" xmlns:xlink="http://www.w3.org/1999/xlink" x="0px" y="0px"
	 viewBox="0 0 24 24" style="enable-background:new 0 0 24 24;" xml:space="preserve">
<style type="text/css">
	.st0{opacity:0;fill:#FFFFFF;}
	.st1{fill:#FFFFFF;fill-opacity:0;}
	.st2{fill:none;stroke:#8696ab;stroke-width:1.5;stroke-linecap:round;stroke-miterlimit:10;}
	.st3{fill:none;stroke:#D0D0E6;stroke-width:1.5;stroke-miterlimit:10;}
	.st4{fill:none;stroke:#D0D0E6;stroke-width:1.5;stroke-linecap:round;stroke-miterlimit:10;}
	.st5{fill:none;stroke:#8696ab;stroke-width:1.5;stroke-miterlimit:10;}
</style>
<rect class="st0" width="24" height="24"/>
<rect class="st1" width="24" height="24"/>
<g>
	<path class="st2" d="M14.9,13.7c3.7,0.4,6.4,1.7,6.4,3.2c0,1.7-3.4,3-7.9,3.3"/>
	<path class="st2" d="M9.5,20.1c-3.9-0.4-6.7-1.7-6.7-3.2c0-1.5,2.7-2.7,6.4-3.2"/>
	<g>
		<g>
			<defs>
				<rect id="SVGID_1_" x="-26" y="-628.5" width="1920" height="1073"/>
			</defs>
			<clipPath id="SVGID_2_">
				<use xlink:href="#SVGID_1_"  style="overflow:visible;"/>
			</clipPath>
		</g>
	</g>
	<g>
		<path class="st3" d="M7.6,11.5c-0.5-0.7-0.7-1.7-0.7-2.6c0-2.9,2.3-5.2,5.2-5.2s5.2,2.3,5.2,5.2c0,0.9-0.2,1.9-0.7,2.6
			c-1,1.4-4.5,5.2-4.5,5.2S8.6,12.9,7.6,11.5z"/>
		<circle class="st3" cx="12.1" cy="8.4" r="1.7"/>
	</g>
	<polyline class="st4" points="9,21.5 10.5,20 9,18.5 	"/>
	<g>
		<g>
			<defs>
				<rect id="SVGID_3_" x="-26" y="-628.5" width="1920" height="1073"/>
			</defs>
			<clipPath id="SVGID_4_">
				<use xlink:href="#SVGID_3_"  style="overflow:visible;"/>
			</clipPath>
		</g>
	</g>
	<g>
		<path class="st3" d="M7.6,11.5c-0.5-0.7-0.7-1.7-0.7-2.6c0-2.9,2.3-5.2,5.2-5.2s5.2,2.3,5.2,5.2c0,0.9-0.2,1.9-0.7,2.6
			c-1,1.4-4.5,5.2-4.5,5.2S8.6,12.9,7.6,11.5z"/>
		<circle class="st3" cx="12.1" cy="8.4" r="1.7"/>
	</g>
	<polyline class="st4" points="9,21.5 10.5,20 9,18.5 	"/>
	<g>
		<g>
			<defs>
				<rect id="SVGID_5_" x="-26" y="-628.5" width="1920" height="1073"/>
			</defs>
			<clipPath id="SVGID_6_">
				<use xlink:href="#SVGID_5_"  style="overflow:visible;"/>
			</clipPath>
		</g>
	</g>
	<g>
		<path class="st5" d="M7.6,11.5c-0.5-0.7-0.7-1.7-0.7-2.6c0-2.9,2.3-5.2,5.2-5.2s5.2,2.3,5.2,5.2c0,0.9-0.2,1.9-0.7,2.6
			c-1,1.4-4.5,5.2-4.5,5.2S8.6,12.9,7.6,11.5z"/>
		<circle class="st5" cx="12.1" cy="8.4" r="1.7"/>
	</g>
	<polyline class="st2" points="9,21.5 10.5,20 9,18.5 	"/>
</g>
</svg>
