<?xml version="1.0" encoding="utf-8"?>
<!-- Generator: Adobe Illustrator 25.2.0, SVG Export Plug-In . SVG Version: 6.00 Build 0)  -->
<svg version="1.1" id="Layer_1" xmlns="http://www.w3.org/2000/svg" xmlns:xlink="http://www.w3.org/1999/xlink" x="0px" y="0px"
	 viewBox="0 0 24 24" style="enable-background:new 0 0 24 24;" xml:space="preserve">
<style type="text/css">
	.st0{opacity:0;fill:#FFFFFF;}
	.st1{fill:#8696ab;}
	.st2{fill:none;stroke:#8696ab;stroke-width:1.5;stroke-linecap:round;stroke-miterlimit:10;}
</style>
<rect class="st0" width="24" height="24"/>
<g>
	<path class="st1" d="M20.5,3.5v10.9H3.5V3.5H20.5 M21,2H3C2.5,2,2,2.5,2,3V15c0,0.6,0.4,1,1,1H21c0.6,0,1-0.4,1-1V3
		C22,2.5,21.5,2,21,2L21,2z"/>
</g>
<g>
	<line class="st2" x1="14.5" y1="19.8" x2="19.9" y2="19.8"/>
</g>
<g>
	<line class="st2" x1="4.1" y1="19.8" x2="9.6" y2="19.8"/>
</g>
<g>
	<path class="st1" d="M13.5,19.1v1.4h-3v-1.4H13.5 M15,17.6h-1.5h-3H9v1.5v1.4V22h1.5h3H15v-1.5v-1.4V17.6L15,17.6z"/>
</g>
<g>
	<path class="st1" d="M10.5,6.8L14.3,9l-3.8,2.2V6.8 M10,5C9.5,5,9,5.4,9,6v6.1c0,0.6,0.5,1,1,1c0.2,0,0.3,0,0.5-0.1l5.3-3.1
		c0.7-0.4,0.7-1.3,0-1.7l-5.3-3.1C10.3,5,10.2,5,10,5L10,5z"/>
</g>
</svg>
