<?xml version="1.0" encoding="utf-8"?>
<!-- Generator: Adobe Illustrator 25.2.0, SVG Export Plug-In . SVG Version: 6.00 Build 0)  -->
<svg version="1.1" id="Layer_1" xmlns="http://www.w3.org/2000/svg" xmlns:xlink="http://www.w3.org/1999/xlink" x="0px" y="0px"
	 viewBox="0 0 24 24" style="enable-background:new 0 0 24 24;" xml:space="preserve">
<style type="text/css">
	.st0{fill:#FFFFFF;fill-opacity:0;}
	.st1{fill:none;stroke:#8696ab;stroke-width:1.5;stroke-miterlimit:10;}
	.st2{fill:none;stroke:#8696ab;stroke-width:1.5;stroke-linecap:round;stroke-miterlimit:10;}
	.st3{fill:#8696ab;}
</style>
<rect class="st0" width="24" height="24"/>
<path class="st1" d="M14.5,20.7h-0.3H3.9c-0.5,0-0.9-0.4-0.9-0.9V4.2c0-0.5,0.4-0.9,0.9-0.9H16c0.5,0,0.9,0.4,0.9,0.9v6.9"/>
<g>
	<line class="st2" x1="5.5" y1="8.1" x2="14.5" y2="8.1"/>
	<line class="st2" x1="5.5" y1="12" x2="12.5" y2="12"/>
	<line class="st2" x1="5.5" y1="15.9" x2="11" y2="15.9"/>
</g>
<g>
	<g>
		<path class="st3" d="M16.1,11.4c2.4,0,4.4,2,4.4,4.4s-2,4.4-4.4,4.4s-4.4-2-4.4-4.4S13.6,11.4,16.1,11.4 M16.1,9.9
			c-3.3,0-5.9,2.6-5.9,5.9s2.6,5.9,5.9,5.9S22,19,22,15.8S19.3,9.9,16.1,9.9L16.1,9.9z"/>
	</g>
	<g>
		<polyline class="st1" points="18,16.4 16.1,18.3 14.2,16.4 		"/>
		<line class="st1" x1="16.1" y1="13.3" x2="16.1" y2="18.2"/>
	</g>
</g>
</svg>
