<?xml version="1.0" encoding="utf-8"?>
<!-- Generator: Adobe Illustrator 25.2.0, SVG Export Plug-In . SVG Version: 6.00 Build 0)  -->
<svg version="1.1" id="Layer_1" xmlns="http://www.w3.org/2000/svg" xmlns:xlink="http://www.w3.org/1999/xlink" x="0px" y="0px"
	 viewBox="0 0 24 24" style="enable-background:new 0 0 24 24;" xml:space="preserve">
<style type="text/css">
	.st0{fill:#16123F;}
	.st1{fill:none;stroke:#D0D0E6;stroke-width:1.5;stroke-linecap:round;stroke-miterlimit:10;}
	.st2{clip-path:url(#SVGID_2_);}
	.st3{clip-path:url(#SVGID_4_);fill:#16123F;}
	.st4{fill:none;stroke:#D0D0E6;stroke-width:1.5;stroke-miterlimit:10;}
	.st5{clip-path:url(#SVGID_6_);}
	.st6{clip-path:url(#SVGID_8_);fill:#16123F;}
	.st7{clip-path:url(#SVGID_10_);}
	.st8{clip-path:url(#SVGID_12_);fill:#16123F;}
	.st9{clip-path:url(#SVGID_14_);}
	.st10{clip-path:url(#SVGID_16_);fill:#16123F;}
	.st11{fill:#FFFFFF;fill-opacity:0;}
	.st12{fill:none;stroke:#8696ab;stroke-width:1.5;stroke-miterlimit:10;}
	.st13{fill:none;stroke:#8696ab;stroke-width:1.5;stroke-linecap:round;stroke-miterlimit:10;}
	.st14{fill:#8696ab;}
</style>
<rect x="-926.7" y="118.2" class="st0" width="24" height="24"/>
<path class="st1" d="M-917.2,138.2c-3.9-0.4-6.7-1.7-6.7-3.2c0-1.8,4.2-3.3,9.3-3.3s9.3,1.5,9.3,3.3c0,1.7-3.4,3-7.9,3.3"/>
<g>
	<g>
		<defs>
			<path id="SVGID_1_" d="M-919.8,129.8c-0.6-0.9-0.8-2-0.8-3.1c0-3.4,2.8-6.2,6.2-6.2s6.2,2.8,6.2,6.2c0,1.1-0.2,2.2-0.8,3.1
				c-1.2,1.7-5.3,6.2-5.3,6.2S-918.7,131.5-919.8,129.8z"/>
		</defs>
		<clipPath id="SVGID_2_">
			<use xlink:href="#SVGID_1_"  style="overflow:visible;"/>
		</clipPath>
		<g class="st2">
			<g>
				<defs>
					<rect id="SVGID_3_" x="-952.7" y="-510.4" width="1920" height="1073"/>
				</defs>
				<clipPath id="SVGID_4_">
					<use xlink:href="#SVGID_3_"  style="overflow:visible;"/>
				</clipPath>
				<rect x="-925.7" y="115.6" class="st3" width="22.3" height="25.4"/>
			</g>
		</g>
	</g>
</g>
<g>
	<path class="st4" d="M-919,129.6c-0.5-0.7-0.7-1.7-0.7-2.6c0-2.9,2.3-5.2,5.2-5.2s5.2,2.3,5.2,5.2c0,0.9-0.2,1.9-0.7,2.6
		c-1,1.4-4.5,5.2-4.5,5.2S-918,131-919,129.6z"/>
	<circle class="st4" cx="-914.5" cy="126.5" r="1.7"/>
</g>
<polyline class="st1" points="-917.6,139.5 -916.2,138 -917.7,136.5 "/>
<rect x="-926.7" y="118.2" class="st0" width="24" height="24"/>
<path class="st1" d="M-917.2,138.2c-3.9-0.4-6.7-1.7-6.7-3.2c0-1.8,4.2-3.3,9.3-3.3s9.3,1.5,9.3,3.3c0,1.7-3.4,3-7.9,3.3"/>
<g>
	<g>
		<defs>
			<path id="SVGID_5_" d="M-919.8,129.8c-0.6-0.9-0.8-2-0.8-3.1c0-3.4,2.8-6.2,6.2-6.2s6.2,2.8,6.2,6.2c0,1.1-0.2,2.2-0.8,3.1
				c-1.2,1.7-5.3,6.2-5.3,6.2S-918.7,131.5-919.8,129.8z"/>
		</defs>
		<clipPath id="SVGID_6_">
			<use xlink:href="#SVGID_5_"  style="overflow:visible;"/>
		</clipPath>
		<g class="st5">
			<g>
				<defs>
					<rect id="SVGID_7_" x="-952.7" y="-510.4" width="1920" height="1073"/>
				</defs>
				<clipPath id="SVGID_8_">
					<use xlink:href="#SVGID_7_"  style="overflow:visible;"/>
				</clipPath>
				<rect x="-925.7" y="115.6" class="st6" width="22.3" height="25.4"/>
			</g>
		</g>
	</g>
</g>
<g>
	<path class="st4" d="M-919,129.6c-0.5-0.7-0.7-1.7-0.7-2.6c0-2.9,2.3-5.2,5.2-5.2s5.2,2.3,5.2,5.2c0,0.9-0.2,1.9-0.7,2.6
		c-1,1.4-4.5,5.2-4.5,5.2S-918,131-919,129.6z"/>
	<circle class="st4" cx="-914.5" cy="126.5" r="1.7"/>
</g>
<polyline class="st1" points="-917.6,139.5 -916.2,138 -917.7,136.5 "/>
<rect x="-799.6" y="223.8" class="st0" width="24" height="24"/>
<path class="st1" d="M-790.2,243.8c-3.9-0.4-6.7-1.7-6.7-3.2c0-1.8,4.2-3.3,9.3-3.3s9.3,1.5,9.3,3.3c0,1.7-3.4,3-7.9,3.3"/>
<g>
	<g>
		<defs>
			<path id="SVGID_9_" d="M-792.8,235.4c-0.6-0.9-0.8-2-0.8-3.1c0-3.4,2.8-6.2,6.2-6.2s6.2,2.8,6.2,6.2c0,1.1-0.2,2.2-0.8,3.1
				c-1.2,1.7-5.3,6.2-5.3,6.2S-791.6,237.1-792.8,235.4z"/>
		</defs>
		<clipPath id="SVGID_10_">
			<use xlink:href="#SVGID_9_"  style="overflow:visible;"/>
		</clipPath>
		<g class="st7">
			<g>
				<defs>
					<rect id="SVGID_11_" x="-825.7" y="-404.8" width="1920" height="1073"/>
				</defs>
				<clipPath id="SVGID_12_">
					<use xlink:href="#SVGID_11_"  style="overflow:visible;"/>
				</clipPath>
				<rect x="-798.7" y="221.2" class="st8" width="22.3" height="25.4"/>
			</g>
		</g>
	</g>
</g>
<g>
	<path class="st4" d="M-792,235.2c-0.5-0.7-0.7-1.7-0.7-2.6c0-2.9,2.3-5.2,5.2-5.2s5.2,2.3,5.2,5.2c0,0.9-0.2,1.9-0.7,2.6
		c-1,1.4-4.5,5.2-4.5,5.2S-791,236.6-792,235.2z"/>
	<circle class="st4" cx="-787.5" cy="232.1" r="1.7"/>
</g>
<polyline class="st1" points="-790.6,245.1 -789.2,243.6 -790.7,242.1 "/>
<rect x="-927.1" y="104.5" class="st0" width="24" height="24"/>
<path class="st1" d="M-917.6,124.5c-3.9-0.4-6.7-1.7-6.7-3.2c0-1.8,4.2-3.3,9.3-3.3s9.3,1.5,9.3,3.3c0,1.7-3.4,3-7.9,3.3"/>
<g>
	<g>
		<defs>
			<path id="SVGID_13_" d="M-920.3,116.1c-0.6-0.9-0.8-2-0.8-3.1c0-3.4,2.8-6.2,6.2-6.2s6.2,2.8,6.2,6.2c0,1.1-0.2,2.2-0.8,3.1
				c-1.2,1.7-5.3,6.2-5.3,6.2S-919.1,117.8-920.3,116.1z"/>
		</defs>
		<clipPath id="SVGID_14_">
			<use xlink:href="#SVGID_13_"  style="overflow:visible;"/>
		</clipPath>
		<g class="st9">
			<g>
				<defs>
					<rect id="SVGID_15_" x="-953.1" y="-524.1" width="1920" height="1073"/>
				</defs>
				<clipPath id="SVGID_16_">
					<use xlink:href="#SVGID_15_"  style="overflow:visible;"/>
				</clipPath>
				<rect x="-926.1" y="101.9" class="st10" width="22.3" height="25.4"/>
			</g>
		</g>
	</g>
</g>
<g>
	<path class="st4" d="M-919.4,115.9c-0.5-0.7-0.7-1.7-0.7-2.6c0-2.9,2.3-5.2,5.2-5.2s5.2,2.3,5.2,5.2c0,0.9-0.2,1.9-0.7,2.6
		c-1,1.4-4.5,5.2-4.5,5.2S-918.4,117.3-919.4,115.9z"/>
	<circle class="st4" cx="-914.9" cy="112.8" r="1.7"/>
</g>
<polyline class="st1" points="-918.1,125.8 -916.6,124.3 -918.1,122.8 "/>
<rect class="st11" width="24" height="24"/>
<path class="st12" d="M14.5,20.7h-0.3H3.9c-0.5,0-0.9-0.4-0.9-0.9V4.2c0-0.5,0.4-0.9,0.9-0.9H16c0.5,0,0.9,0.4,0.9,0.9v6.9"/>
<g>
	<line class="st13" x1="5.5" y1="8.1" x2="14.5" y2="8.1"/>
	<line class="st13" x1="5.5" y1="12" x2="12.5" y2="12"/>
	<line class="st13" x1="5.5" y1="15.9" x2="11" y2="15.9"/>
</g>
<g>
	<g>
		<path class="st14" d="M16.1,11.4c2.4,0,4.4,2,4.4,4.4s-2,4.4-4.4,4.4s-4.4-2-4.4-4.4S13.6,11.4,16.1,11.4 M16.1,9.9
			c-3.3,0-5.9,2.6-5.9,5.9s2.6,5.9,5.9,5.9S22,19,22,15.8S19.3,9.9,16.1,9.9L16.1,9.9z"/>
	</g>
	<polyline class="st13" points="13.8,15.8 15.3,17.3 18.3,14.3 	"/>
</g>
</svg>
